<?xml version="1.0" encoding="UTF-8"?><svg xmlns="http://www.w3.org/2000/svg" xmlns:xlink="http://www.w3.org/1999/xlink" viewBox="0 0 50 50" version="1.1"><path d="M0 17l2 5H0l2 5H0l6 8-.664-2h39.332L44 35l6-8h-2l2-5h-2l2-5zm4.57 2h40.856L44 24h2l-2 5h2l-.668 2H4.664L4 29h2l-2-5h2zM8 21v5h5v1H8v2h7v-5h-5v-1h5v-2zm8 0v8h2v-3.668L20 29l2-3.668V29h2v-8h-2l-2 4-2-4zm9 0v8h2v-8zm3 0v2h2v6h2v-6h2v-2zm7 0v8h7v-2h-5v-1h5v-2h-5v-1h5v-2z" id="surface1"/><metadata><rdf:RDF xmlns:rdf="http://www.w3.org/1999/02/22-rdf-syntax-ns#" xmlns:rdfs="http://www.w3.org/2000/01/rdf-schema#" xmlns:dc="http://purl.org/dc/elements/1.1/"><rdf:Description about="https://iconscout.com/legal#licenses" dc:title="smite" dc:description="smite" dc:publisher="Iconscout" dc:date="2017-12-09" dc:format="image/svg+xml" dc:language="en"><dc:creator><rdf:Bag><rdf:li>Icons8</rdf:li></rdf:Bag></dc:creator></rdf:Description></rdf:RDF></metadata></svg>